Coordinates
version=1
nRows=38
nColumns=12
inDegrees=yes

Units are S.I. units (second, meters, Newtons, ...)
Angles are in degrees

endheader
time	SC_y	SC_z	SC_x	AC_y	AC_z	AC_x	GH_y	GH_z	GH_yy	EL_x	PS_y
       0.0              -33.15          26.96          46.12          50.42          4.802          15.51         -127.3          16.47          161.8          30.88           82.1
   0.03564              -33.14          26.96          46.12          50.41          4.799          15.51         -127.3          16.48          161.8          30.89          82.11
   0.07129              -33.14          26.95          46.12          50.41          4.796          15.51         -127.3          16.49          161.8           30.9          82.12
    0.1069              -33.14          26.95          46.13          50.41          4.792          15.51         -127.3           16.5          161.8          30.91          82.14
    0.1426              -33.14          26.94          46.13          50.41          4.789          15.51         -127.3          16.51          161.8          30.93          82.15
    0.1782              -33.14          26.93          46.14          50.41          4.785          15.51         -127.3          16.52          161.8          30.94          82.16
    0.2139              -33.14          26.93          46.14          50.41           4.78          15.51         -127.3          16.53          161.8          30.95          82.18
    0.2495              -33.14          26.92          46.15           50.4          4.776          15.51         -127.2          16.54          161.8          30.97          82.19
    0.2851              -33.14          26.91          46.16           50.4          4.771          15.51         -127.2          16.55          161.8          30.98          82.21
    0.3208              -33.13          26.91          46.16           50.4          4.766          15.51         -127.2          16.57          161.7           31.0          82.22
    0.3564              -33.13           26.9          46.17           50.4          4.761          15.51         -127.2          16.58          161.7          31.02          82.24
    0.3921              -33.13          26.89          46.18          50.39          4.755          15.51         -127.2           16.6          161.7          31.04          82.26
    0.4277              -33.13          26.88          46.18          50.39          4.748          15.51         -127.2          16.61          161.7          31.06          82.28
    0.4634              -33.13          26.87          46.19          50.39          4.741          15.51         -127.1          16.63          161.7          31.09          82.31
     0.499              -33.12          26.86           46.2          50.39          4.734          15.51         -127.1          16.65          161.7          31.11          82.33
    0.5346              -33.12          26.85          46.21          50.38          4.726          15.51         -127.1          16.67          161.7          31.14          82.36
    0.5703              -33.12          26.83          46.22          50.38          4.717          15.51         -127.1           16.7          161.7          31.17          82.39
    0.6059              -33.11          26.82          46.24          50.37          4.707           15.5         -127.0          16.72          161.7           31.2          82.42
    0.6416              -33.11           26.8          46.25          50.37          4.697           15.5         -127.0          16.75          161.7          31.24          82.46
    0.6772              -33.11          26.78          46.26          50.36          4.685           15.5         -127.0          16.78          161.7          31.28           82.5
    0.7129               -33.1          26.77          46.28          50.36          4.673           15.5         -126.9          16.81          161.7          31.32          82.54
    0.7485               -33.1          26.74           46.3          50.35          4.659           15.5         -126.9          16.85          161.7          31.37          82.59
    0.7841              -33.09          26.72          46.32          50.35          4.643           15.5         -126.8          16.89          161.6          31.42          82.64
    0.8198              -33.09           26.7          46.34          50.34          4.626           15.5         -126.8          16.93          161.6          31.48           82.7
    0.8554              -33.08          26.67          46.36          50.33          4.607          15.49         -126.7          16.98          161.6          31.54          82.76
    0.8911              -33.07          26.64          46.39          50.32          4.586          15.49         -126.6          17.03          161.6          31.61          82.83
    0.9267              -33.07           26.6          46.42          50.31          4.563          15.49         -126.6           17.1          161.6          31.69          82.91
    0.9624              -33.06          26.56          46.46           50.3          4.536          15.49         -126.5          17.17          161.5          31.78           83.0
     0.998              -33.05          26.51          46.49          50.28          4.506          15.48         -126.4          17.24          161.5          31.89           83.1
     1.034              -33.04          26.46          46.54          50.27          4.472          15.48         -126.3          17.33          161.5           32.0          83.22
     1.069              -33.02           26.4          46.59          50.25          4.433          15.47         -126.1          17.43          161.5          32.13          83.35
     1.105              -33.01          26.34          46.64          50.23          4.388          15.47         -126.0          17.55          161.4          32.29           83.5
     1.141              -32.99          26.26          46.71          50.21          4.337          15.46         -125.8          17.68          161.4          32.46          83.67
     1.176              -32.97          26.17          46.79          50.18          4.277          15.46         -125.6          17.84          161.3          32.66          83.88
     1.212              -32.95          26.06          46.88          50.15          4.207          15.45         -125.4          18.02          161.3           32.9          84.11
     1.248              -32.92          25.94          46.98          50.11          4.124          15.44         -125.2          18.24          161.2          33.18          84.39
     1.283              -32.89          25.79          47.11          50.07          4.026          15.43         -124.8          18.49          161.1          33.52          84.72
     1.319              -32.85          25.61          47.26          50.02          3.908          15.42         -124.5           18.8          161.0          33.92          85.12
